<?xml version="1.0" encoding="utf-8"?>
<!-- Generator: Adobe Illustrator 15.1.0, SVG Export Plug-In . SVG Version: 6.00 Build 0)  -->
<!DOCTYPE svg PUBLIC "-//W3C//DTD SVG 1.1//EN" "http://www.w3.org/Graphics/SVG/1.1/DTD/svg11.dtd">
<svg version="1.1" id="Ebene_1" xmlns="http://www.w3.org/2000/svg" xmlns:xlink="http://www.w3.org/1999/xlink" x="0px" y="0px"
	 width="815.959px" height="466.477px" viewBox="0 0 815.959 466.477" enable-background="new 0 0 815.959 466.477"
	 xml:space="preserve">
<g>
	<path fill-rule="evenodd" clip-rule="evenodd" d="M377.303,191.223c1.605,6.699,2.525,14.842,3.706,22.982
		c1.31,9.018,2.161,23.792,11.12,22.982c1.742-0.157,2.602-1.729,4.449-2.224c6.198-1.66,15.127-1.708,20.016-1.483
		c0.588,3.801-4.574,1.851-5.93,3.707c0.842,5.688,6.107,2.356,9.637,5.189c3.584-4.619,12.658-2.674,17.793-0.741
		c0.193,3.624,0.877,4.564,2.967,7.414c-9.902,3.689-18.852,8.333-27.432,13.344c-8.877,1.619-16.157,2.054-23.724,5.932
		c1.659,20.547,5.688,36.884,10.38,55.603c0.105,2.33-1.902,2.547-3.707,2.965c5.702,4.45,8.083,10.846,8.897,21.5
		c-10.059-1.063-12.708-9.535-16.311-17.052c-10.805-7.483-13.318-23.255-19.275-35.585c0.627-8.153-1.684-13.581-3.707-20.759
		c-5.717,1.173-8.807-0.05-14.827,0c-1.644-0.408-1.056,1.416-2.224,1.482c-20.646,1.783-39.919-3.503-47.447-22.981
		c-2.194-5.677-5.301-13.212-1.483-17.052c16.592,7.838,38.876,10.205,60.051,6.672c-1.325-11.102-2.643-21.144-4.448-31.137
		c-1.812-10.027-8.635-19.795-2.966-31.137C363.405,181.891,369.631,187.28,377.303,191.223z M418.079,248.308
		c-0.027-2.444-2.109-2.834-4.449-2.965C413.657,247.787,415.739,248.177,418.079,248.308z"/>
	<path fill-rule="evenodd" clip-rule="evenodd" d="M77.963,457.478c-2.966,0-5.931,0-8.896,0c0-0.248,0-0.494,0-0.742
		c-4.887-4.297-3.411-14.373-0.741-17.793c-5.436-2.678,1.824-15.146-5.19-18.533c2.745,0.52,1.279-3.17,2.966-3.707
		c-1.951-6.627-3.446-14.959,0-20.018c-4.027-7.715,0.676-15.189-1.483-22.982c4.287-8.406-3.389-22.031,2.965-28.172
		c-5.875-18.086,1.517-45.01-1.482-67.464c-19.931,1.568-21.478,21.521-39.292,25.206c-5.74-4.639-12.409-8.35-16.31-14.827
		c0-0.494,0-0.988,0-1.482c1.434-19.819,14.745-27.76,31.137-32.62c5.427-5.941,9.634-13.102,17.793-16.311
		c0.375-7.285,5.427-9.894,8.155-14.827c1.149-2.753-0.413-10.804,2.966-13.344c-3.473-6.623-1.68-23.44-1.483-31.879
		c0.209-8.991-0.605-17.645-1.483-25.207c-0.307-2.642,1.478-5.786-1.482-7.414c1.698-1.267,1.753-4.178,2.224-6.672
		c-3.22-16.75-3.641-37.977-5.931-57.085c-0.56-4.675-1.357-8.238-1.483-14.086C60.472,47.06,48.816,27.885,52.016,7.468
		c4.927,2.487,10.313,4.514,16.31,5.931c4.268,5.85,9.889,13.514,9.638,21.5c3.009,5.299,5.812,13.004,4.448,21.5
		c8.444,24.475,7.442,50.888,8.896,76.361c0.531,9.303,2.654,18.615,2.966,28.172c0.274,8.413-1.715,17.978,3.707,25.206
		c12.563-6.959,15.38-23.665,27.431-31.137c0-1.482,0-2.965,0-4.448c13.377-13.559,21.767-32.106,32.62-48.188
		c4.257-11.559,9.188-22.444,15.569-31.879c-1.63-9.115,4.914-14.86,6.672-23.724c1.755-8.85-1.873-19.009,3.707-25.948
		c7.824,3.001,17.601,3.453,23.724,9.638c1.089,3.112,1.466,6.936,2.965,9.638c-4.301,34.212-18.18,64.87-35.585,92.671
		c-16.797,26.829-35.744,52.894-54.12,76.36c-4.821,6.157-10.271,11.62-16.31,18.534c-3.563,4.08-8.133,8.037-9.638,11.12
		c-2,4.1-3.321,16.867-0.741,20.759c3.026,4.565,17.759,6.87,24.465,9.638c8.153,3.364,14.813,9.688,24.465,9.638
		c4.917-23.952,15.439-44.866,31.137-60.051c3.824-0.624,5.802-3.094,7.414-5.931c15.876-6.967,32.183-5.623,45.965,0
		c11.777,4.805,17.271,17.202,33.361,17.793c8.64,15.396,6.985,37.334,11.862,57.826c4.916,20.659,10.596,36,23.724,46.706
		c8.037,6.555,22.691,13.771,36.327,9.638c5.209,2.946,7.417,8.894,11.862,12.604c-1.464,6.938-7.75,9.054-12.604,12.603
		c-5.621,1.738-12.804-1.846-18.534,0c-7.332-4.066-16.232-3.334-22.982-7.412c-1.601-0.969-3.833-3.614-5.931-5.19
		c-16.148-12.135-27.968-34.611-37.81-54.12c-17.307,5.182-24.739,20.237-38.551,28.913c-8.803,2.706-15.205,8.644-24.465,8.896
		c-17.929,0.491-31.087-18.537-40.775-28.172c-0.337-4.604-2.786-7.099-3.707-11.12c-16.836-4.025-29.224-16.106-45.965-17.793
		c-3.389,9.128-3.075,22.593,0,31.879c-3.267,4.768-4.867,19.235-5.189,25.206C86.304,378.839,91.604,420.856,77.963,457.478z
		 M215.857,283.256c10-10.145,22.67-24.72,11.862-42.999c-4.444-0.784-6.587-4.377-9.638-5.189
		c-17.557-4.676-26.733,12.426-34.844,21.499c-4.19,9.402-8.562,18.622-11.121,29.655
		C182.901,291.139,205.189,287.681,215.857,283.256z"/>
	<path fill-rule="evenodd" clip-rule="evenodd" d="M808.803,253.226c-0.034,0.493-0.069,0.985-0.104,1.479
		c-3.495,6.104-5.483,13.942-9.544,19.395c-4.578,2.456-8.615,5.535-11.136,10.362c-15.627,6.954-28.596,13.244-47.791,13.723
		c-42.527,1.057-64.083-24.976-71.04-57.036c-11.155,1.012-23.523,0.625-30.894,5.995c14.695,11.008,32.43,25.924,36.116,46.397
		c4.391,24.372-23.903,42.863-42.106,49.054c-5.611,1.908-11.732,3.865-17.428,4.717c-5.529,0.826-11.136-0.241-17.112,0.278
		c-1.717,0.15-3.563,1.623-5.334,1.854c-14.843,1.938-29.915-2.772-44.528-0.912c4.638,14.024,8.344,28.855,10.974,44.624
		c-3.827,4.442-10.83,12.881-18.219,5.402c-1.204-1.22-0.511-4.087-1.747-6.812c-1.038-2.283-3.324-3.661-4.074-5.49
		c-0.792-1.928-0.217-4.525-1.009-6.76c-3.313-9.346-9.333-26.878-10.86-35.696c-12.855-3.787-25.646-7.76-36.191-13.702
		c-0.914-0.514-1.115-2.514-2.011-3.113c-2.85-1.911-6.972-3.234-10.041-5.168c-2.458-1.55-5.628-4.119-7.822-5.012
		c-9.458-3.847-19.915-19.019-24.85-27.022c-0.685-2.021,4.783-2.17,0.948-2.905c-0.658-4.624-4.751-2.367-6.237-6.386
		c-0.985-2.664,0.147-4.346,0.469-6.656c0.739-5.313-0.01-9.087-3.446-14.363c7.138-2.176,12.833-6.009,19.22-9.05
		c9.474,0.783,14.461-3.601,22.603-4.351c4.604-0.44,3.839,2.93,8.188-0.167c0.135-5.068-4.625-11.654-6.987-16.843
		c-15.939-4.906-27.904-13.263-39.318-22.097c-0.377-4.995-1.442-9.393-4.342-12.198c1.961-6.322-4.521-13.527-2.923-21.759
		c1.012-5.216,4.655-6.953,7.489-11.363c-18.279-24.395-36.065-49.218-63.758-65.441c-4.109-9.75-11.721-22.648-7.953-34.749
		c15.807,7.58,37.624,25.441,56.108,15.849c2.051,2.155,4.412,4.039,8.613,4.324c16.267,1.568,38.373-4.023,58.841-1.794
		c2.253-4.068,5.743-6.713,9.553-8.988c6.36,3.967,16.751,4.432,22.403,9.013c4.919-3.25,18.697-2.609,24.509,0.242
		c5.045-6.397,19.742,0.275,25.718-6.361c4.411,1.266,12.799,4.904,17.75,1.253c1.229,4.402,5.377,2.024,8.611,4.323
		c1.279-3.059,6.277-1.832,7.075-5.446c10.071,3.431,29.812,7.848,38.507,1.974c7.814,1.576,13.936-0.701,24.456,0.981
		c7.974,1.275,13.991,4.038,21.663,8.96c3.629,2.329,9.304,10.212,8.677,13.99c-1.661,9.999-14.712,10.835-20.585,17.871
		c-12.197,4.608-23.67,10.052-35.271,15.349c-10.485,3.116-21.547,5.568-30.469,10.485c-24.15,4.549-45.589,16.1-68.967,18.917
		c-2.489,3.263-8.244,2.764-10.822,5.925c2.703,10.427,1.152,28.079,4.526,41.196c3.52,3.429,9.032,3.311,15.217,5.533
		c1.065,0.383,3.071,2.421,3.542,2.479c1.457,0.181,2.867-1.541,4.54-1.167c11.694,2.616,23.87,9.547,36.455,10.004
		c10.364,0.376,21.725-4.956,33.956-7.267c7.289-1.377,15.096-0.789,21.708-2.185c2.855-0.602,8.57-2.562,12.147-3.602
		c11.618-3.38,10.756-16.942,22.323-21.465c5.06-1.979,12.499-0.544,17.373-3.977c8.073,6.878,17.386,6.985,27.686,7.899
		c0.354-0.929,0.788-4.397,4.011-4.177c5.255,1.804,7.394-2.347,12.04-2.123c5.53,0.266,20.808,6.165,26.103,9.273
		c2.522,1.481,6.459,5.297,9.831,8.125C796.499,217.499,806.356,235.635,808.803,253.226z M526.247,107.691
		c1.485,10.048,0.974,21.833,5.36,29.363c2.823-1.29,4.978,0.284,8.135,0.574c1.223,0.075,0.56-2.021,1.635-2.114
		c6.42,2.73,7.954-6.734,16.636-4.029c2.173-5.445,10.308-4.762,15.209-4.873c0.967-3.072,5.889-3.379,8.342-2.384
		c1.174-3.446,4.468-4.451,9.188-3.811c6.136-4.66,14.854-6.346,23.604-7.996c0.16-2.748,3.746-1.547,4.011-4.176
		c-0.327-5.027-7.275-1.237-8.613-4.324 M422.086,109.261c8.714,15.113,20.56,27.507,28.931,42.918
		c5.771,4.068,10.695-1.042,17.009,1.2c0.804-1.328-2.041-2.628,0.208-2.958c3.009-0.519,4.49-0.415,7.396,0.521
		c6.934-6.141,19.2-6.138,28.196-9.902c-0.729-11.631-0.558-24.044-4.36-33.008C472.257,107.321,450.53,110.134,422.086,109.261z
		 M489.917,180.192c-7.475,0.453-14.487,1.44-18.958,5.351c2.306,16.742,21.206,19.077,40.109,21.41
		c-0.684-10.283-2.063-19.961-2.299-30.633C501.134,176.011,495.002,176.106,489.917,180.192z M699.718,240.328
		c-2.671-0.678-2.95,1.4-5.281,1.113c0.006,4.622,2.727,6.89,2.915,11.354c20.215,23.922,86.225,16.416,85.081-15.551
		C764.779,210.019,716.356,224.24,699.718,240.328z M497.837,236.491c0.873,5.607,5.735,17.079,16.069,14.511
		c-0.84-4.36,0.056-10.229-1.227-14.207C509.075,235.944,497.708,231.976,497.837,236.491z M543.491,316.262
		c20.316,7.819,50.859,1.852,66.078,0.946c8.4-4.51,16.488-2.03,23.708-9.477c1.41-0.066,1.574,0.949,2.907,0.948
		c3.458-7.743,11.58-10.116,13.292-19.872c-21.388-29.296-72.563-39.112-111.121-47.229
		C539.932,267.309,541.689,292.573,543.491,316.262z M515.614,268.96c-1.38-4.589,0.786-12.255-2.654-15.052
		c-2.565,0.778-5.141,1.542-6.916,3.229 M471.19,266.569c-3.08,4.716-10.604,4.312-15.366,7.092
		c0.644,2.682,2.924,3.942,1.646,8.291c14.36,13.507,33.976,25.962,56.598,30.004c-4.062-17.311-14.804-34.809-21.597-52.061
		c-2.651,0.105-4.449-0.05-5.229,0.374C487.874,265.616,475.29,266.648,471.19,266.569z"/>
</g>
</svg>
